# xmcd
#
# Track frame offsets:
#	150
#	21190
#	40130
#	58465
#	70740
#	93095
#	102815
#	120652
#	144025
#
# Disc length: 2129 seconds
#
# Revision: 1
# Processed by: cddbd v1.5.2PL0 Copyright (c) Steve Scherf et al.
# Submitted via: audiograbber 1.83.01
#
DISCID=70084f09
DTITLE=Ron Hacker - RON HACKER - I Got Tattooed
DYEAR=1900
DGENRE=Blues
TTITLE0=One Wife Too Many
TTITLE1=I Asked Sweet Momma
TTITLE2=Redcross Store
TTITLE3=Last Go Round
TTITLE4=Death Letter Blues
TTITLE5=Two Women
TTITLE6=Big Leg Woman
TTITLE7=You Got To Move
TTITLE8=I Got Tattooed
EXTD=
EXTT0=
EXTT1=
EXTT2=
EXTT3=
EXTT4=
EXTT5=
EXTT6=
EXTT7=
EXTT8=
PLAYORDER=
